<svg xmlns="http://www.w3.org/2000/svg" width="564" height="497" viewBox="0 0 564 497" version="1.1"><path d="M 80.531 205.293 C 80.103 206.279, 80.034 207.367, 80.376 207.710 C 81.392 208.725, 82.211 207.299, 81.743 205.328 C 81.329 203.581, 81.275 203.580, 80.531 205.293 M 270 389.383 C 270 390.144, 270.941 391.013, 272.092 391.314 C 274.100 391.839, 274.113 391.783, 272.437 389.930 C 270.359 387.634, 270 387.553, 270 389.383 M 269.750 496.732 C 272.087 496.943, 275.913 496.943, 278.250 496.732 C 280.587 496.522, 278.675 496.349, 274 496.349 C 269.325 496.349, 267.413 496.522, 269.750 496.732 M 287.750 496.732 C 290.087 496.943, 293.913 496.943, 296.250 496.732 C 298.587 496.522, 296.675 496.349, 292 496.349 C 287.325 496.349, 285.413 496.522, 287.750 496.732" stroke="none" fill="#e4e4e4" fill-rule="evenodd"/><path d="M 261.500 12.589 C 195.438 19.115, 145.126 38.531, 99.500 75.106 C 42.271 120.983, 10 185.666, 10 254.500 C 10 338.968, 58.285 415.753, 139.789 460.896 C 170.139 477.706, 203.040 488.470, 240.975 494.001 C 261.859 497.045, 304.141 497.045, 325.025 494.001 C 376.892 486.439, 420.325 468.707, 460.829 438.557 C 474.177 428.621, 500.112 402.763, 510.026 389.505 C 566.126 314.484, 571.409 218.970, 523.829 139.995 C 498.233 97.510, 455.261 60.149, 407.211 38.605 C 368.165 21.098, 332.210 13.204, 288.500 12.542 C 275.850 12.351, 263.700 12.372, 261.500 12.589 M 252 27.080 C 218.804 30.728, 187.218 39.869, 157.500 54.428 C 106.281 79.521, 67.287 117.491, 44.458 164.500 C 16.444 222.187, 16.444 286.813, 44.458 344.500 C 79.433 416.522, 152.179 466.677, 242 480.696 C 258.515 483.274, 307.485 483.274, 324 480.696 C 374.743 472.776, 420.702 453.245, 457.500 423.963 C 515 378.208, 547.607 307.436, 542.074 240.396 C 538.032 191.411, 518.696 147.812, 484.045 109.550 L 479.149 104.143 479.696 107.516 C 480.633 113.289, 479.173 117.827, 475.051 121.949 L 471.214 125.786 476.179 130.643 C 483.229 137.539, 487.452 143.657, 489.515 149.963 C 491.012 154.540, 492.939 157.071, 501.401 165.582 C 506.955 171.169, 513.366 176.683, 515.646 177.837 C 522.119 181.112, 523 182.429, 522.996 188.821 C 522.992 195.114, 520.546 200.375, 517.119 201.462 C 516.008 201.815, 514.158 203.626, 513.007 205.488 C 509.853 210.592, 505.711 211.581, 496.282 209.484 C 486.598 207.329, 479.313 207.882, 471 211.403 C 467.425 212.918, 461.575 214.949, 458 215.918 C 443.302 219.902, 437.938 225.507, 433.998 241 C 430.674 254.068, 428.708 258.917, 423.732 266.326 C 421.210 270.081, 417.939 276.606, 416.463 280.826 C 409.836 299.767, 404.537 306.625, 394.207 309.628 C 388.149 311.389, 386.152 313.835, 383.286 323 C 382.026 327.030, 381.558 332.109, 381.533 342 C 381.494 357.928, 382.421 360.612, 390.696 368.536 C 395.496 373.133, 399.045 379.289, 397.681 380.652 C 396.747 381.586, 385.612 382.611, 381.086 382.180 C 377.293 381.818, 376.433 381.237, 373.649 377.156 C 371.917 374.618, 369.269 371.267, 367.765 369.709 C 363.394 365.182, 363.178 364.230, 363.742 351.998 C 364.222 341.560, 364.011 339.419, 361.660 330.939 C 360.220 325.748, 358.416 319.025, 357.650 316 C 356.884 312.975, 356.025 311.175, 355.741 312 C 355.458 312.825, 354.079 316.875, 352.678 321 C 351.277 325.125, 349.321 330.525, 348.332 333 C 346.874 336.647, 346.530 340.439, 346.516 353 C 346.501 367.871, 347.644 375, 350.044 375 C 350.998 375, 358 385.980, 358 387.475 C 358 389.219, 350.421 391, 343.001 391 C 336.452 391, 335.732 390.778, 332.480 387.750 C 329.812 385.266, 328.761 383.261, 328.020 379.243 C 327.486 376.351, 326.063 372.652, 324.858 371.022 L 322.667 368.058 325.474 358.909 C 328.038 350.548, 328.212 349.016, 327.489 341.130 C 325.809 322.803, 326.257 321.926, 341.526 313.603 L 351.843 307.979 361.672 307.722 C 370.293 307.497, 372.381 307.069, 378.668 304.233 C 382.610 302.455, 387.335 300.992, 389.168 300.983 C 392.227 300.967, 392.685 300.537, 394.756 295.733 C 395.997 292.855, 397.009 289.038, 397.006 287.250 C 397.001 284.549, 396.620 283.999, 394.750 283.996 C 393.512 283.993, 390.666 282.756, 388.425 281.246 C 377.933 274.176, 376.015 271.337, 376.006 262.858 C 376 257.535, 376.155 257.178, 378.750 256.531 C 386.479 254.605, 391.853 249.486, 393.998 242.007 C 394.962 238.647, 393.633 230.509, 391.951 229.470 C 391.510 229.197, 389.878 230.770, 388.324 232.966 C 384.338 238.599, 383.019 238.220, 383.698 231.637 C 384.055 228.177, 383.852 226.027, 383.126 225.578 C 382.494 225.187, 382 225.502, 382 226.295 C 382 228.868, 377.426 232.698, 372.333 234.389 L 367.313 236.057 363.407 232.432 C 345.856 216.150, 315.509 205.238, 275.500 200.824 C 256.498 198.727, 200.913 199.034, 184.089 201.329 C 153.445 205.508, 135.221 214.290, 122.744 230.888 C 120.234 234.226, 117.977 237.530, 117.727 238.229 C 116.995 240.280, 115.911 238.501, 115.405 234.417 C 114.924 230.545, 113.499 228, 111.810 228 C 111.290 228, 111.149 228.895, 111.497 229.990 C 112.081 231.830, 111.792 231.933, 107.644 231.365 C 103.716 230.826, 102.839 231.071, 100.580 233.330 C 97.206 236.703, 97.155 241.246, 100.455 244.545 C 103.408 247.499, 106.420 247.651, 110.668 245.061 C 114.456 242.751, 115.438 243.986, 113.947 249.186 C 112.490 254.266, 112.824 269.895, 114.532 276.540 C 116.451 284.011, 121.502 294.792, 127.240 303.668 C 133.279 313.010, 133.161 312.782, 134.086 316.868 C 134.632 319.282, 134.385 323.015, 133.348 328 C 131.494 336.911, 132.090 346.541, 134.973 354.260 C 136.490 358.322, 138.635 361.074, 144.509 366.500 C 149.750 371.342, 152.509 374.733, 153.456 377.500 L 154.825 381.500 150.163 382.253 C 147.598 382.667, 142.678 382.726, 139.228 382.384 C 133.320 381.798, 132.477 381.369, 124.684 374.980 C 120.134 371.250, 115.869 367.007, 115.205 365.552 C 114.468 363.934, 113.997 357.970, 113.993 350.203 C 113.988 340.774, 113.452 335.309, 111.914 329 C 110.774 324.325, 109.588 317.012, 109.278 312.750 C 108.968 308.488, 108.394 305, 108.002 305 C 106.596 305, 99.186 322.652, 97.507 330 C 96.564 334.125, 95.558 343.350, 95.271 350.500 C 94.652 365.898, 95.146 367.496, 103.400 376.809 C 108.918 383.035, 111.087 387.425, 109.377 388.905 C 107.734 390.325, 100.280 392, 95.602 392 C 87.515 392, 80.603 387.850, 79.473 382.316 C 79.213 381.042, 78.747 378.797, 78.437 377.326 C 78.128 375.856, 76.520 372.766, 74.864 370.461 L 71.854 366.269 73.989 354.884 C 76.976 338.961, 77.630 321.816, 75.683 310.500 C 74.831 305.550, 74.348 300.150, 74.610 298.500 C 75.022 295.898, 74.749 296.124, 72.551 300.196 C 71.157 302.778, 69.226 305.352, 68.259 305.915 C 67.291 306.478, 66.855 306.953, 67.289 306.970 C 67.724 306.986, 67.606 307.563, 67.029 308.250 C 66.451 308.938, 65.050 310.738, 63.917 312.250 C 61.114 315.988, 60.003 315.705, 59.984 311.250 C 59.976 309.188, 59.317 304.800, 58.520 301.500 C 56.801 294.380, 56.610 285.944, 58.051 280.757 C 58.623 278.698, 61.311 274.476, 64.025 271.374 C 66.960 268.020, 69.271 264.270, 69.729 262.118 C 70.955 256.365, 70.496 213.399, 69.109 203.961 C 67.597 193.677, 68.818 179.915, 72.548 165.212 C 75.173 154.863, 77.563 150.523, 82.500 147.140 C 90.455 141.689, 112.092 137.143, 134 136.320 C 146.355 135.855, 148.814 136.080, 163 138.967 C 184.019 143.245, 190.570 143.543, 218.874 141.509 C 248.299 139.395, 272.372 139.851, 292 142.896 C 309.404 145.596, 314.954 145.539, 329.522 142.508 C 345.208 139.244, 362.205 139.094, 377.690 142.083 C 387.130 143.904, 389.613 144.032, 397.511 143.100 C 402.476 142.515, 408.697 141.300, 411.334 140.402 L 416.129 138.768 411.097 135.380 C 403.276 130.113, 401.704 125.239, 406.950 122.526 C 413.113 119.339, 423.482 121.450, 428.405 126.894 C 431.117 129.892, 431.758 129.534, 431.641 125.084 C 431.514 120.241, 433.251 118.164, 442.307 112.327 C 446.863 109.391, 450.005 106.472, 451.807 103.501 C 453.288 101.060, 454.847 99.049, 455.271 99.032 C 455.696 99.014, 456.540 100.091, 457.147 101.423 C 458.739 104.917, 457.371 110.508, 453.979 114.371 L 451.056 117.700 455.778 117.600 C 458.375 117.545, 461.679 117.831, 463.119 118.236 C 466.718 119.248, 472.796 114.746, 476.010 108.688 L 478.460 104.070 474.980 100.432 C 468.188 93.332, 452.315 80.680, 439.051 71.795 C 406.811 50.198, 366.974 35.060, 325 28.455 C 312.589 26.503, 265.352 25.613, 252 27.080 M 80.531 205.293 C 80.103 206.279, 80.034 207.367, 80.376 207.710 C 81.392 208.725, 82.211 207.299, 81.743 205.328 C 81.329 203.581, 81.275 203.580, 80.531 205.293 M 80.668 226.500 C 80.302 236.400, 79.268 249.450, 78.369 255.500 C 77.470 261.550, 76.665 272.173, 76.580 279.106 L 76.426 291.712 81.871 280.106 C 86.725 269.760, 87.364 267.631, 87.757 260.500 C 88.194 252.541, 86.731 239.293, 83.173 219 L 81.332 208.501 80.668 226.500 M 103.596 236.306 C 101.518 237.826, 101.751 241.832, 104 243.226 C 104.943 243.810, 106.521 243.765, 108.250 243.103 C 111.916 241.699, 112.030 237.790, 108.453 236.161 C 105.346 234.745, 105.747 234.733, 103.596 236.306 M 276.500 262.040 C 270.183 265.468, 268.101 267.919, 263.796 277 C 257.817 289.612, 258.825 289, 244.021 289 C 237.053 289, 226.886 289.651, 221.426 290.447 C 215.587 291.297, 205.735 291.800, 197.500 291.667 L 183.500 291.440 177.170 287.128 C 165.073 278.889, 155.507 276.421, 151.105 280.405 C 148.700 282.582, 149.815 285, 153.222 285 C 154.310 285, 156.835 286.635, 158.833 288.633 C 160.832 290.632, 163.712 292.701, 165.233 293.231 C 168.636 294.417, 168.670 295.022, 165.500 298 C 164.125 299.292, 163 301.379, 163 302.639 C 163 305.127, 166.285 307.488, 168.542 306.622 C 169.628 306.205, 169.881 307.207, 169.714 311.255 C 169.514 316.092, 169.690 316.511, 172.500 317.872 C 174.150 318.672, 176.101 320.172, 176.837 321.206 C 177.572 322.240, 179.934 323.790, 182.087 324.651 C 185.872 326.166, 186 326.373, 186 330.986 C 186 334.005, 186.550 336.212, 187.500 337 C 188.325 337.685, 189 339.072, 189 340.083 C 189 341.094, 189.698 342.501, 190.551 343.211 C 191.404 343.920, 193.767 346.107, 195.801 348.071 C 198.088 350.278, 202.362 352.713, 207 354.450 C 211.125 355.995, 215.059 357.775, 215.742 358.407 C 216.425 359.039, 217.275 362.341, 217.631 365.745 C 218.435 373.440, 216.643 380.533, 213.349 382.691 C 209.873 384.968, 210.477 386, 215.285 386 C 217.641 386, 222.130 386.900, 225.260 388 C 232.067 390.393, 234.425 390.550, 233.662 388.561 C 233.288 387.586, 233.908 387.022, 235.586 386.811 C 240.169 386.235, 238.151 384.510, 231.300 383.147 C 227.560 382.403, 224.141 381.278, 223.703 380.647 C 222.573 379.021, 223.759 369.366, 225.504 365.993 C 227.690 361.766, 232.172 359, 236.837 359 C 240.140 359, 240.992 359.405, 241.568 361.250 C 241.954 362.488, 245.022 366.440, 248.385 370.034 C 251.748 373.628, 255.165 377.841, 255.979 379.396 C 257.387 382.088, 257.327 382.328, 254.729 384.399 C 251.021 387.356, 251.298 388.136, 255.802 387.416 C 258.270 387.021, 260.944 387.368, 263.424 388.404 C 268.214 390.405, 270.389 390.457, 269.659 388.553 C 269.232 387.441, 270.176 387.035, 273.723 386.803 C 279.168 386.446, 281.004 384.003, 275.833 383.994 C 269.968 383.985, 265.326 382.117, 262.753 378.732 C 258.183 372.720, 257.156 369.802, 257.741 364.486 C 258.370 358.759, 261.279 354.037, 270.289 344.113 C 281.680 331.566, 285.871 325.219, 288.475 316.571 C 293.529 299.791, 293.514 299.971, 290.546 290.782 C 288.019 282.958, 287.969 282.445, 289.655 281.500 C 290.636 280.950, 292.728 279.174, 294.304 277.554 C 296.437 275.360, 298.040 274.633, 300.584 274.705 C 302.463 274.758, 304 274.349, 304 273.795 C 304 272.859, 301.132 268.845, 297.537 264.750 C 296.691 263.788, 296 262.550, 296 262 C 296 261.450, 294.762 260.996, 293.250 260.991 C 291.738 260.987, 288.250 260.732, 285.500 260.426 C 281.539 259.986, 279.669 260.321, 276.500 262.040" stroke="none" fill="#fbfbfb" fill-rule="evenodd"/></svg>
